<?xml version="1.0" encoding="iso-8859-1"?>
<!-- Generator: Adobe Illustrator 27.8.1, SVG Export Plug-In . SVG Version: 6.00 Build 0)  -->
<svg version="1.1" xmlns="http://www.w3.org/2000/svg" xmlns:xlink="http://www.w3.org/1999/xlink" x="0px" y="0px"
	 viewBox="0 0 200 200" style="enable-background:new 0 0 200 200;" xml:space="preserve">
<g id="Laag_1">
</g>
<g id="telefoon">
	<g>
		<path style="fill:#FFFFFF;" d="M109.392,111.698c-0.003-1.583,0.401-2.039,2.003-2.013c5.933,0.097,11.869,0.047,17.804,0.035
			c3.256-0.007,4.378-0.886,4.796-4.079c0.79-6.047,1.505-12.105,2.17-18.167c0.315-2.874-1.338-4.475-4.581-4.494
			c-6.623-0.038-13.247-0.089-19.868,0.036c-1.947,0.036-2.472-0.509-2.42-2.435c0.138-5.071-0.017-10.149,0.064-15.222
			c0.116-7.189,2.996-10.341,10.21-10.932c3.675-0.301,7.385-0.172,11.079-0.229c3.599-0.056,4.653-1.072,4.663-4.587
			c0.014-4.903,0.02-9.805-0.003-14.708c-0.015-3.045-1.171-4.284-4.192-4.212c-7.47,0.178-14.977-0.661-22.409,0.513
			c-13.91,2.198-23.371,12.174-25.113,26.232c-0.957,7.717-0.365,15.462-0.434,23.192c-0.018,1.979-0.566,2.453-2.457,2.383
			c-3.951-0.147-7.911-0.056-11.868-0.041c-3.776,0.014-5.044,1.206-5.039,4.869c0.008,5.932,0.061,11.865,0.136,17.797
			c0.035,2.798,1.305,4.052,4.133,4.076c4.386,0.038,8.775,0.086,13.158-0.029c1.628-0.043,2.002,0.485,1.995,2.038
			c-0.077,18.835-0.109,37.67-0.08,56.505c0.001,0.605-0.156,0.901-0.321,1.207h26.771c-0.184-0.353-0.29-0.804-0.286-1.49
			C109.396,149.196,109.419,130.447,109.392,111.698z"/>
	</g>
</g>
<g id="svg5">
</g>
</svg>
