<?xml version="1.0" encoding="iso-8859-1"?>
<!-- Generator: Adobe Illustrator 27.8.1, SVG Export Plug-In . SVG Version: 6.00 Build 0)  -->
<svg version="1.1" xmlns="http://www.w3.org/2000/svg" xmlns:xlink="http://www.w3.org/1999/xlink" x="0px" y="0px"
	 viewBox="0 0 200 200" style="enable-background:new 0 0 200 200;" xml:space="preserve">
<g id="Laag_1">
</g>
<g id="Isolatiemodus">
	<g>
		<g>
			<path style="fill:#FFFFFF;" d="M128.787,165.95H71.946c-20.71,0-37.554-16.845-37.554-37.554V71.554
				C34.391,50.845,51.236,34,71.946,34h56.842c20.71,0,37.554,16.845,37.554,37.554v56.842
				C166.342,149.106,149.497,165.95,128.787,165.95z M71.946,46.047c-14.058,0-25.507,11.449-25.507,25.507v56.842
				c0,14.058,11.449,25.507,25.507,25.507h56.842c14.058,0,25.507-11.449,25.507-25.507V71.554
				c0-14.058-11.449-25.507-25.507-25.507H71.946z"/>
		</g>
		<g>
			<path style="fill:#FFFFFF;" d="M100.366,134.027c-18.777,0-34.052-15.275-34.052-34.052s15.275-34.052,34.052-34.052
				s34.052,15.275,34.052,34.052S119.144,134.027,100.366,134.027z M100.366,77.97c-12.136,0-22.005,9.869-22.005,22.005
				s9.869,22.005,22.005,22.005s22.005-9.869,22.005-22.005S112.502,77.97,100.366,77.97z"/>
		</g>
		<g>
			<path style="fill:#FFFFFF;" d="M135.792,72.908c-4.611,0-8.358-3.748-8.358-8.358c0-4.611,3.748-8.358,8.358-8.358
				s8.358,3.748,8.358,8.358C144.15,69.161,140.403,72.908,135.792,72.908z M135.792,60.861c-2.041,0-3.689,1.648-3.689,3.689
				c0,2.041,1.648,3.689,3.689,3.689s3.689-1.648,3.689-3.689C139.481,62.509,137.833,60.861,135.792,60.861z"/>
		</g>
	</g>
</g>
<g id="svg5">
</g>
</svg>
