<?xml version="1.0" encoding="iso-8859-1"?>
<!-- Generator: Adobe Illustrator 27.8.1, SVG Export Plug-In . SVG Version: 6.00 Build 0)  -->
<svg version="1.1" xmlns="http://www.w3.org/2000/svg" xmlns:xlink="http://www.w3.org/1999/xlink" x="0px" y="0px"
	 viewBox="0 0 200 200" style="enable-background:new 0 0 200 200;" xml:space="preserve">
<g id="Laag_1">
</g>
<g id="telefoon">
	<path style="fill:#FFFFFF;" d="M156.833,70.684c0.055,0.013,0.107,0.037,0.162,0.05v-4.847c-4.971,0.067-9.879-1.119-14.272-3.449
		c-0.9-0.466-1.744-0.958-2.59-1.504c-0.002-0.002-0.005-0.004-0.007-0.006c-2.447-1.606-4.692-3.5-6.687-5.643
		c-3.906-4.345-6.515-9.697-7.533-15.45h0.026c-0.364-1.811-0.465-3.665-0.3-5.505h-22.709v87.277
		c0.185,3.031-0.158,6.071-1.014,8.985c-1.605,4.863-5.2,8.815-9.889,10.874c-5.345,2.608-11.623,2.448-16.83-0.425
		c-0.013-0.018-0.03-0.03-0.043-0.048c-0.766-0.412-1.534-0.878-2.328-1.398c-1.917-1.365-3.565-3.074-4.859-5.04
		c-5.776-8.778-3.343-20.577,5.435-26.353c7.231-5.287,16.244-2.302,16.244-2.302V88.162c0.008,0,0.016-0.003,0.024-0.003v-5.095
		c-11.684-1.656-23.517,1.786-32.489,9.451c-3.911,3.375-7.202,7.408-9.725,11.917c-3.175,5.822-4.895,12.326-5.013,18.957
		c-0.051,5.098,0.773,10.166,2.437,14.984v0.054c1.499,4.006,3.575,7.771,6.163,11.176c2.81,3.533,6.124,6.634,9.834,9.205
		c-1.151-1.174-2.239-2.408-3.259-3.697c-2.586-3.431-4.671-7.212-6.191-11.231v-0.028c-1.638-4.816-2.462-9.871-2.437-14.957
		c0.029-1.667,0.16-3.325,0.389-4.967c-0.225,1.623-0.355,3.263-0.384,4.91c-0.036,5.087,0.788,10.144,2.437,14.956v0.029
		c1.514,4.021,3.599,7.803,6.191,11.23c1.02,1.29,2.108,2.524,3.259,3.697l0.054,0.054c6.894,4.499,14.943,6.906,23.175,6.931
		c5.94-0.005,11.809-1.295,17.204-3.779c9.91-4.577,17.651-12.829,21.587-23.011c1.661-4.621,2.586-9.474,2.739-14.382V78.267
		c0.278,0.166,3.946,2.576,3.946,2.576c4.23,2.475,8.785,4.346,13.532,5.561c4.564,1.044,9.212,1.676,13.888,1.89V70.745
		C156.942,70.731,156.891,70.698,156.833,70.684z M149.303,67.94c-0.21-0.11-0.389-0.267-0.597-0.381
		c0.447,0.241,0.914,0.443,1.373,0.664C149.83,68.105,149.55,68.065,149.303,67.94z"/>
</g>
<g id="svg5">
</g>
</svg>
