<?xml version="1.0" encoding="iso-8859-1"?>
<!-- Generator: Adobe Illustrator 27.8.1, SVG Export Plug-In . SVG Version: 6.00 Build 0)  -->
<svg version="1.1" xmlns="http://www.w3.org/2000/svg" xmlns:xlink="http://www.w3.org/1999/xlink" x="0px" y="0px"
	 viewBox="0 0 200 200" style="enable-background:new 0 0 200 200;" xml:space="preserve">
<g id="Laag_1">
</g>
<g id="telefoon">
	<path style="fill:#FFFFFF;" d="M168.839,85.664c-0.52-7.835-0.609-17.85-5.73-25.905c-2.381-3.136-6.437-5.569-10.761-6.38
		c-5.412-1.027-28.501-1.838-52.297-1.838c-23.849,0-46.887,0.812-52.294,1.838c-3.462,0.648-6.544,2.215-9.194,4.65
		c-5.612,5.203-6.022,14.12-6.867,21.632c-1.024,13.603-0.827,25.777,0,40.668c0.54,6.598,0.919,9.299,1.892,12.545
		c1.134,3.897,2.596,6.705,4.434,8.546c2.379,2.432,5.622,4.109,9.355,4.865c5.517,1.137,14.494,1.572,40.775,2.056v0
		c21.919,0.351,41.231-0.02,63.974-1.731c3.635-0.624,6.993-2.34,9.627-4.921c1.68-1.677,2.65-3.19,3.787-6.058
		c1.838-4.542,2.489-8.923,3.298-21.304C169.054,110.593,169.054,89.397,168.839,85.664z M85.829,117.895v-38.83
		c12.377,6.487,24.485,12.753,37.13,19.51C112.532,104.352,98.829,110.828,85.829,117.895z"/>
</g>
<g id="svg5">
</g>
</svg>
